<svg xmlns="http://www.w3.org/2000/svg" width="720" height="336" viewBox="0 0 720 336" font-family="ui-sans-serif, system-ui, -apple-system, Segoe UI, Roboto, sans-serif" font-size="13"><title>Time per parse, standard parser versus compiled</title><text x="250" y="16" fill="#6b6a66" font-size="12">time per parse</text><rect x="432" y="6" width="10" height="10" rx="2" fill="#e9e8e4"/><text x="446" y="15" fill="#6b6a66" font-size="12">standard parser</text><rect x="544" y="6" width="10" height="10" rx="2" fill="#2a78d6"/><text x="558" y="15" fill="#6b6a66" font-size="12">compiled</text><line x1="250.0" y1="26" x2="250.0" y2="308" stroke="#e6e5e1" stroke-width="1"/><text x="250.0" y="324" text-anchor="middle" fill="#6b6a66" font-size="11">0</text><line x1="322.0" y1="26" x2="322.0" y2="308" stroke="#e6e5e1" stroke-width="1"/><text x="322.0" y="324" text-anchor="middle" fill="#6b6a66" font-size="11">100</text><line x1="394.0" y1="26" x2="394.0" y2="308" stroke="#e6e5e1" stroke-width="1"/><text x="394.0" y="324" text-anchor="middle" fill="#6b6a66" font-size="11">200</text><line x1="466.0" y1="26" x2="466.0" y2="158" stroke="#e6e5e1" stroke-width="1"/><line x1="466.0" y1="274" x2="466.0" y2="308" stroke="#e6e5e1" stroke-width="1"/><text x="466.0" y="324" text-anchor="middle" fill="#6b6a66" font-size="11">300</text><line x1="538.0" y1="26" x2="538.0" y2="158" stroke="#e6e5e1" stroke-width="1"/><line x1="538.0" y1="274" x2="538.0" y2="308" stroke="#e6e5e1" stroke-width="1"/><text x="538.0" y="324" text-anchor="middle" fill="#6b6a66" font-size="11">400</text><line x1="610.0" y1="26" x2="610.0" y2="158" stroke="#e6e5e1" stroke-width="1"/><line x1="610.0" y1="274" x2="610.0" y2="308" stroke="#e6e5e1" stroke-width="1"/><text x="610.0" y="324" text-anchor="middle" fill="#6b6a66" font-size="11">500 ns</text><text x="238" y="51" text-anchor="end" fill="#0b0b0b" font-family="ui-monospace, SFMono-Regular, Menlo, monospace" font-size="12">z.array(z.object()), 10 items</text><rect x="250" y="37" width="315.8" height="20" rx="4" fill="#e9e8e4"/><rect x="250" y="37" width="50.0" height="20" rx="4" fill="#2a78d6"/><text x="306.9826449149601" y="51" fill="#0b0b0b" font-weight="700" font-size="12">69 ns</text><text x="573.8" y="51" fill="#6b6a66" font-size="12">6.3x faster</text><text x="238" y="85" text-anchor="end" fill="#0b0b0b" font-family="ui-monospace, SFMono-Regular, Menlo, monospace" font-size="12">z.object(), 20 keys</text><rect x="250" y="71" width="218.8" height="20" rx="4" fill="#e9e8e4"/><rect x="250" y="71" width="28.8" height="20" rx="4" fill="#2a78d6"/><text x="285.8230584467574" y="85" fill="#0b0b0b" font-weight="700" font-size="12">40 ns</text><text x="476.8" y="85" fill="#6b6a66" font-size="12">7.6x faster</text><text x="238" y="119" text-anchor="end" fill="#0b0b0b" font-family="ui-monospace, SFMono-Regular, Menlo, monospace" font-size="12">z.array(z.string()), 10 items</text><rect x="250" y="105" width="176.3" height="20" rx="4" fill="#e9e8e4"/><rect x="250" y="105" width="23.9" height="20" rx="4" fill="#2a78d6"/><text x="280.8845579698126" y="119" fill="#0b0b0b" font-weight="700" font-size="12">33 ns</text><text x="434.3" y="119" fill="#6b6a66" font-size="12">7.4x faster</text><text x="238" y="153" text-anchor="end" fill="#0b0b0b" font-family="ui-monospace, SFMono-Regular, Menlo, monospace" font-size="12">z.union() of 3 objects</text><rect x="250" y="139" width="149.1" height="20" rx="4" fill="#e9e8e4"/><rect x="250" y="139" width="26.0" height="20" rx="4" fill="#2a78d6"/><text x="282.9880887926367" y="153" fill="#0b0b0b" font-weight="700" font-size="12">36 ns</text><text x="407.1" y="153" fill="#6b6a66" font-size="12">5.7x faster</text><text x="238" y="187" text-anchor="end" fill="#0b0b0b" font-family="ui-monospace, SFMono-Regular, Menlo, monospace" font-size="12">z.tuple() of 3</text><rect x="250" y="173" width="86.5" height="20" rx="4" fill="#e9e8e4"/><rect x="250" y="173" width="23.7" height="20" rx="4" fill="#2a78d6"/><text x="280.6959025835116" y="187" fill="#0b0b0b" font-weight="700" font-size="12">33 ns</text><text x="344.5" y="187" fill="#6b6a66" font-size="12">3.6x faster</text><text x="238" y="221" text-anchor="end" fill="#0b0b0b" font-family="ui-monospace, SFMono-Regular, Menlo, monospace" font-size="12">z.strictObject(), 5 keys</text><rect x="250" y="207" width="82.1" height="20" rx="4" fill="#e9e8e4"/><rect x="250" y="207" width="24.3" height="20" rx="4" fill="#2a78d6"/><text x="281.3202161796994" y="221" fill="#0b0b0b" font-weight="700" font-size="12">34 ns</text><text x="340.1" y="221" fill="#6b6a66" font-size="12">3.4x faster</text><text x="238" y="255" text-anchor="end" fill="#0b0b0b" font-family="ui-monospace, SFMono-Regular, Menlo, monospace" font-size="12">z.discriminatedUnion()</text><rect x="250" y="241" width="71.1" height="20" rx="4" fill="#e9e8e4"/><rect x="250" y="241" width="19.5" height="20" rx="4" fill="#2a78d6"/><text x="276.4884287454324" y="255" fill="#0b0b0b" font-weight="700" font-size="12">27 ns</text><text x="329.1" y="255" fill="#6b6a66" font-size="12">3.7x faster</text><text x="238" y="289" text-anchor="end" fill="#0b0b0b" font-family="ui-monospace, SFMono-Regular, Menlo, monospace" font-size="12">z.object(), 5 keys</text><rect x="250" y="275" width="56.9" height="20" rx="4" fill="#e9e8e4"/><rect x="250" y="275" width="20.8" height="20" rx="4" fill="#2a78d6"/><text x="277.8333333333333" y="289" fill="#0b0b0b" font-weight="700" font-size="12">29 ns</text><text x="322.8" y="289" fill="#6b6a66" font-size="12">2.7x faster</text><text x="530" y="180" text-anchor="middle" fill="#6b6a66" font-size="16">up to</text><text x="530" y="238" text-anchor="middle" fill="#2a78d6" font-weight="800" font-size="62">7.6&#215;</text><text x="530" y="264" text-anchor="middle" fill="#0b0b0b" font-weight="600" font-size="14">faster when compiled</text></svg>