<svg xmlns="http://www.w3.org/2000/svg" width="720" height="400" viewBox="0 0 720 400" font-family="ui-sans-serif, system-ui, -apple-system, Segoe UI, Roboto, sans-serif" font-size="13"><title>.validate() vs .safeParse().success — compiled with z.compile(), invalid input</title><text x="250" y="38" fill="#0b0b0b" font-weight="700" font-size="14">.validate() vs .safeParse().success</text><line x1="250.0" y1="68" x2="250.0" y2="350" stroke="#e6e5e1" stroke-width="1"/><text x="250.0" y="366" text-anchor="middle" fill="#6b6a66" font-size="11">0</text><line x1="322.0" y1="68" x2="322.0" y2="350" stroke="#e6e5e1" stroke-width="1"/><text x="322.0" y="366" text-anchor="middle" fill="#6b6a66" font-size="11">200</text><line x1="394.0" y1="68" x2="394.0" y2="350" stroke="#e6e5e1" stroke-width="1"/><text x="394.0" y="366" text-anchor="middle" fill="#6b6a66" font-size="11">400</text><line x1="466.0" y1="68" x2="466.0" y2="350" stroke="#e6e5e1" stroke-width="1"/><text x="466.0" y="366" text-anchor="middle" fill="#6b6a66" font-size="11">600</text><line x1="538.0" y1="68" x2="538.0" y2="350" stroke="#e6e5e1" stroke-width="1"/><text x="538.0" y="366" text-anchor="middle" fill="#6b6a66" font-size="11">800</text><line x1="610.0" y1="68" x2="610.0" y2="350" stroke="#e6e5e1" stroke-width="1"/><text x="610.0" y="366" text-anchor="middle" fill="#6b6a66" font-size="11">1,000 ns</text><text x="238" y="93" text-anchor="end" fill="#0b0b0b" font-family="ui-monospace, SFMono-Regular, Menlo, monospace" font-size="12">z.union() of 3 objects</text><rect x="250" y="79" width="356.2" height="20" rx="4" fill="#e9e8e4"/><rect x="250" y="79" width="10.2" height="20" rx="4" fill="#2a78d6"/><text x="267.2" y="93" fill="#0b0b0b" font-weight="700" font-size="12">28 ns</text><text x="614.2" y="93" fill="#6b6a66" font-size="12">34.9x faster</text><text x="238" y="127" text-anchor="end" fill="#0b0b0b" font-family="ui-monospace, SFMono-Regular, Menlo, monospace" font-size="12">z.array(z.string()), 10</text><rect x="250" y="113" width="202.2" height="20" rx="4" fill="#e9e8e4"/><rect x="250" y="113" width="8.2" height="20" rx="4" fill="#2a78d6"/><text x="265.2" y="127" fill="#0b0b0b" font-weight="700" font-size="12">23 ns</text><text x="460.2" y="127" fill="#6b6a66" font-size="12">24.6x faster</text><text x="238" y="161" text-anchor="end" fill="#0b0b0b" font-family="ui-monospace, SFMono-Regular, Menlo, monospace" font-size="12">z.tuple() of 3</text><rect x="250" y="147" width="159.7" height="20" rx="4" fill="#e9e8e4"/><rect x="250" y="147" width="9.9" height="20" rx="4" fill="#2a78d6"/><text x="266.9" y="161" fill="#0b0b0b" font-weight="700" font-size="12">28 ns</text><text x="417.7" y="161" fill="#6b6a66" font-size="12">16.1x faster</text><text x="238" y="195" text-anchor="end" fill="#0b0b0b" font-family="ui-monospace, SFMono-Regular, Menlo, monospace" font-size="12">z.object(), 5 keys</text><rect x="250" y="181" width="120.4" height="20" rx="4" fill="#e9e8e4"/><rect x="250" y="181" width="7.4" height="20" rx="4" fill="#2a78d6"/><text x="264.4" y="195" fill="#0b0b0b" font-weight="700" font-size="12">21 ns</text><text x="378.4" y="195" fill="#6b6a66" font-size="12">16.3x faster</text><text x="238" y="229" text-anchor="end" fill="#0b0b0b" font-family="ui-monospace, SFMono-Regular, Menlo, monospace" font-size="12">z.discriminatedUnion() of 3</text><rect x="250" y="215" width="118.6" height="20" rx="4" fill="#e9e8e4"/><rect x="250" y="215" width="7.5" height="20" rx="4" fill="#2a78d6"/><text x="264.5" y="229" fill="#0b0b0b" font-weight="700" font-size="12">21 ns</text><text x="376.6" y="229" fill="#6b6a66" font-size="12">15.7x faster</text><text x="238" y="263" text-anchor="end" fill="#0b0b0b" font-family="ui-monospace, SFMono-Regular, Menlo, monospace" font-size="12">z.number()</text><rect x="250" y="249" width="92.4" height="20" rx="4" fill="#e9e8e4"/><rect x="250" y="249" width="6.7" height="20" rx="4" fill="#2a78d6"/><text x="263.7" y="263" fill="#0b0b0b" font-weight="700" font-size="12">19 ns</text><text x="350.4" y="263" fill="#6b6a66" font-size="12">13.8x faster</text><text x="238" y="297" text-anchor="end" fill="#0b0b0b" font-family="ui-monospace, SFMono-Regular, Menlo, monospace" font-size="12">z.string()</text><rect x="250" y="283" width="92.0" height="20" rx="4" fill="#e9e8e4"/><rect x="250" y="283" width="7.0" height="20" rx="4" fill="#2a78d6"/><text x="264.0" y="297" fill="#0b0b0b" font-weight="700" font-size="12">19 ns</text><text x="350.0" y="297" fill="#6b6a66" font-size="12">13.2x faster</text><text x="238" y="331" text-anchor="end" fill="#0b0b0b" font-family="ui-monospace, SFMono-Regular, Menlo, monospace" font-size="12">z.boolean()</text><rect x="250" y="317" width="91.7" height="20" rx="4" fill="#e9e8e4"/><rect x="250" y="317" width="6.7" height="20" rx="4" fill="#2a78d6"/><text x="263.7" y="331" fill="#0b0b0b" font-weight="700" font-size="12">19 ns</text><text x="349.7" y="331" fill="#6b6a66" font-size="12">13.7x faster</text><rect x="442" y="267.0" width="192.5" height="71.0" rx="6" fill="#fcfcfb"/><text x="452" y="280" fill="#0b0b0b" font-weight="600" font-size="12">compiled with z.compile()</text><rect x="452" y="305" width="10" height="10" rx="2" fill="#e9e8e4"/><text x="467" y="314" fill="#6b6a66" font-size="12">.safeParse().success</text><rect x="452" y="322" width="10" height="10" rx="2" fill="#2a78d6"/><text x="467" y="331" fill="#6b6a66" font-size="12">.validate()</text></svg>