<svg width="177" height="24" viewBox="0 0 177 24" fill="none" xmlns="http://www.w3.org/2000/svg">
<path d="M9.06145 23.1079C5.26816 22.3769 -3.39077 20.6274 1.4173 5.06384C9.6344 6.09939 16.9728 14.0644 9.06145 23.1079Z" fill="url(#paint0_linear_17557_2145)"/>
<path d="M8.91928 23.0939C5.27642 21.2223 0.78371 4.20891 17.0071 0C20.7569 7.19341 19.6212 16.5452 8.91928 23.0939Z" fill="url(#paint1_linear_17557_2145)"/>
<path d="M8.91388 23.0788C8.73534 19.8817 10.1585 9.08525 23.5699 13.1107C23.1812 20.1229 18.984 26.4182 8.91388 23.0788Z" fill="url(#paint2_linear_17557_2145)"/>
<path d="M32.3008 19.3922V3.89432H37.9383L39.925 9.94786C40.0359 10.3154 40.1642 10.7869 40.3098 11.3624C40.4624 11.938 40.6114 12.5516 40.7571 13.2035C40.9096 13.8553 41.0483 14.4828 41.1731 15.0861C41.3049 15.6824 41.4123 16.1921 41.4955 16.6151H40.6946C40.7709 16.1921 40.8715 15.6824 40.9963 15.0861C41.128 14.4897 41.2667 13.8657 41.4123 13.2139C41.5649 12.562 41.714 11.9484 41.8596 11.3728C42.0052 10.7904 42.1335 10.3154 42.2444 9.94786L44.1999 3.89432H49.8478V19.3922H46.1657V12.7042C46.1657 12.3575 46.1726 11.9172 46.1865 11.3832C46.2004 10.8493 46.2143 10.2703 46.2281 9.64623C46.2489 9.02215 46.2663 8.39114 46.2801 7.75319C46.3009 7.11525 46.3113 6.51891 46.3113 5.96418H46.6234C46.4847 6.56052 46.3321 7.18112 46.1657 7.826C45.9993 8.47088 45.8329 9.10189 45.6665 9.71903C45.507 10.3362 45.3509 10.9013 45.1984 11.4144C45.0528 11.9276 44.928 12.3575 44.824 12.7042L42.6085 19.3922H39.5609L37.3142 12.7042C37.2033 12.3575 37.0715 11.9276 36.919 11.4144C36.7734 10.9013 36.6139 10.3396 36.4405 9.72944C36.2741 9.11229 36.1042 8.48128 35.9309 7.8364C35.7644 7.19153 35.6084 6.56745 35.4628 5.96418H35.8269C35.8338 6.51198 35.8442 7.10485 35.8581 7.74279C35.8719 8.3738 35.8858 9.00481 35.8997 9.63582C35.9205 10.2599 35.9378 10.8389 35.9517 11.3728C35.9655 11.9068 35.9725 12.3506 35.9725 12.7042V19.3922H32.3008ZM51.6684 19.3922V8.02363H55.288V19.3922H51.6684ZM53.4678 6.78588C52.927 6.78588 52.4728 6.61599 52.1053 6.27621C51.7377 5.92951 51.554 5.50652 51.554 5.00726C51.554 4.508 51.7377 4.08848 52.1053 3.74871C52.4728 3.40893 52.927 3.23904 53.4678 3.23904C54.0087 3.23904 54.4629 3.40893 54.8304 3.74871C55.1979 4.08155 55.3817 4.50107 55.3817 5.00726C55.3817 5.50652 55.1979 5.92951 54.8304 6.27621C54.4629 6.61599 54.0087 6.78588 53.4678 6.78588ZM60.7075 13.0266V19.3922H57.0879V8.02363H60.5515L60.5931 10.9672H60.2811C60.5931 10.0241 61.0612 9.26831 61.6852 8.69971C62.3093 8.12417 63.1379 7.8364 64.1711 7.8364C64.9755 7.8364 65.6724 8.01669 66.2618 8.37727C66.8512 8.73091 67.3019 9.23364 67.614 9.88545C67.9329 10.5373 68.0924 11.307 68.0924 12.1945V19.3922H64.4832V12.9122C64.4832 12.2604 64.3202 11.7542 63.9943 11.3936C63.6753 11.0331 63.2212 10.8528 62.6318 10.8528C62.2504 10.8528 61.9141 10.936 61.6228 11.1024C61.3316 11.2688 61.1062 11.515 60.9467 11.8409C60.7873 12.1599 60.7075 12.5551 60.7075 13.0266ZM76.4555 8.02363V10.7488H69.0081V8.02363H76.4555ZM70.6828 5.16328H74.292V15.783C74.292 16.1019 74.3613 16.3342 74.5 16.4799C74.6456 16.6255 74.8987 16.6983 75.2593 16.6983C75.4049 16.6983 75.5956 16.6879 75.8314 16.6671C76.0741 16.6463 76.2509 16.6289 76.3618 16.6151L76.6323 19.309C76.3133 19.3783 75.9631 19.4269 75.5817 19.4546C75.2073 19.4824 74.8363 19.4962 74.4688 19.4962C73.1999 19.4962 72.2499 19.2223 71.6189 18.6745C70.9948 18.1267 70.6828 17.3085 70.6828 16.2198V5.16328Z" fill="#FAFAFA"/>
<path d="M88.6674 19.6522C87.5232 19.6522 86.5282 19.4581 85.6822 19.0698C84.8432 18.6815 84.1879 18.1371 83.7164 17.4368C83.2448 16.7364 82.9917 15.9078 82.9571 14.9509H84.9333C84.968 15.5957 85.1483 16.1401 85.4742 16.5839C85.8001 17.0207 86.2404 17.3536 86.7951 17.5824C87.3499 17.8043 87.974 17.9152 88.6674 17.9152C89.3885 17.9152 90.0265 17.8008 90.5812 17.572C91.1429 17.3432 91.5832 17.0242 91.9022 16.6151C92.2281 16.199 92.391 15.7171 92.391 15.1693C92.391 14.6978 92.2662 14.306 92.0166 13.994C91.7669 13.675 91.4133 13.408 90.9556 13.1931C90.498 12.9781 89.9537 12.7874 89.3227 12.621L87.5024 12.1321C86.1225 11.7646 85.0824 11.255 84.382 10.6031C83.6886 9.94439 83.3419 9.09496 83.3419 8.05483C83.3419 7.17419 83.5708 6.4045 84.0284 5.74575C84.4861 5.087 85.1171 4.57734 85.9214 4.21676C86.7258 3.84925 87.6446 3.6655 88.6778 3.6655C89.7179 3.6655 90.6297 3.85272 91.4133 4.22717C92.2038 4.60161 92.8244 5.12167 93.2751 5.78736C93.7259 6.4461 93.9651 7.20886 93.9928 8.07563H92.0894C92.0131 7.22966 91.656 6.57438 91.0181 6.10979C90.387 5.63827 89.5861 5.40251 88.6154 5.40251C87.9497 5.40251 87.3603 5.51346 86.8471 5.73535C86.341 5.95724 85.9457 6.26235 85.6614 6.65066C85.3771 7.03204 85.235 7.46889 85.235 7.96122C85.235 8.44661 85.3771 8.84879 85.6614 9.16777C85.9457 9.4798 86.3167 9.73984 86.7743 9.94786C87.232 10.149 87.7243 10.3188 88.2513 10.4575L89.8843 10.884C90.4391 11.0227 90.9765 11.2064 91.4965 11.4352C92.0235 11.6571 92.495 11.9345 92.9111 12.2673C93.3341 12.5933 93.6704 12.9954 93.92 13.4739C94.1696 13.9454 94.2945 14.5036 94.2945 15.1485C94.2945 16.0153 94.0656 16.7884 93.608 17.468C93.1573 18.1475 92.5124 18.6815 91.6733 19.0698C90.8343 19.4581 89.8323 19.6522 88.6674 19.6522ZM101.097 8.02363V9.59422H95.1062V8.02363H101.097ZM96.9368 5.16328H98.7674V16.5215C98.7674 16.9999 98.8645 17.3466 99.0587 17.5616C99.2597 17.7696 99.5995 17.8736 100.078 17.8736C100.21 17.8736 100.366 17.8667 100.546 17.8528C100.733 17.832 100.903 17.8147 101.056 17.8008L101.285 19.3506C101.097 19.3922 100.886 19.4234 100.65 19.4442C100.414 19.465 100.189 19.4754 99.974 19.4754C98.9962 19.4754 98.2439 19.2362 97.7169 18.7577C97.1968 18.2723 96.9368 17.5789 96.9368 16.6775V5.16328ZM106.33 19.621C105.595 19.621 104.932 19.4893 104.343 19.2258C103.754 18.9554 103.285 18.5636 102.939 18.0504C102.592 17.5304 102.419 16.8959 102.419 16.147C102.419 15.4952 102.547 14.9647 102.804 14.5556C103.06 14.1465 103.403 13.8275 103.833 13.5987C104.263 13.3629 104.742 13.1861 105.269 13.0682C105.796 12.9504 106.333 12.8567 106.881 12.7874C107.574 12.6903 108.132 12.6175 108.555 12.569C108.978 12.5204 109.287 12.4407 109.481 12.3298C109.675 12.2119 109.772 12.0142 109.772 11.7369V11.6537C109.772 11.2029 109.679 10.8146 109.492 10.4887C109.311 10.1628 109.041 9.90972 108.68 9.72944C108.32 9.54915 107.872 9.459 107.338 9.459C106.805 9.459 106.34 9.54568 105.945 9.71903C105.556 9.89239 105.241 10.1177 104.998 10.3951C104.755 10.6655 104.593 10.9533 104.509 11.2584L102.71 10.9152C102.897 10.2218 103.22 9.64969 103.677 9.19897C104.135 8.74825 104.679 8.41194 105.31 8.19005C105.941 7.96815 106.607 7.85721 107.307 7.85721C107.8 7.85721 108.295 7.91961 108.795 8.04443C109.301 8.16925 109.765 8.38074 110.188 8.67891C110.611 8.97014 110.951 9.36886 111.208 9.87505C111.464 10.3743 111.593 11.0053 111.593 11.7681V19.3922H109.793V17.8216H109.7C109.568 18.0851 109.363 18.359 109.086 18.6433C108.809 18.9207 108.444 19.153 107.994 19.3402C107.543 19.5274 106.988 19.621 106.33 19.621ZM106.621 17.9984C107.321 17.9984 107.904 17.8667 108.368 17.6032C108.84 17.3328 109.19 16.9861 109.419 16.5631C109.654 16.1331 109.772 15.6824 109.772 15.2109V13.6923C109.703 13.7686 109.554 13.8414 109.325 13.9107C109.096 13.9732 108.829 14.0321 108.524 14.0876C108.226 14.143 107.921 14.1916 107.609 14.2332C107.304 14.2748 107.033 14.3095 106.798 14.3372C106.354 14.3927 105.938 14.4897 105.549 14.6284C105.168 14.7602 104.86 14.9543 104.624 15.2109C104.388 15.4675 104.27 15.8107 104.27 16.2406C104.27 16.6151 104.367 16.934 104.561 17.1975C104.762 17.461 105.04 17.6621 105.393 17.8008C105.747 17.9326 106.156 17.9984 106.621 17.9984ZM114.193 19.3922V8.02363H115.951V9.79184H116.045C116.253 9.20937 116.61 8.74131 117.116 8.38767C117.622 8.03403 118.219 7.85721 118.905 7.85721C119.058 7.85721 119.217 7.86414 119.384 7.87801C119.55 7.88494 119.682 7.89188 119.779 7.89881V9.73984C119.716 9.71903 119.578 9.69476 119.363 9.66703C119.155 9.63929 118.922 9.62542 118.666 9.62542C118.174 9.62542 117.726 9.7329 117.324 9.94786C116.922 10.1628 116.603 10.4714 116.367 10.8736C116.138 11.2758 116.024 11.7577 116.024 12.3194V19.3922H114.193ZM126.322 8.02363V9.59422H120.33V8.02363H126.322ZM122.161 5.16328H123.992V16.5215C123.992 16.9999 124.089 17.3466 124.283 17.5616C124.484 17.7696 124.824 17.8736 125.302 17.8736C125.434 17.8736 125.59 17.8667 125.77 17.8528C125.958 17.832 126.127 17.8147 126.28 17.8008L126.509 19.3506C126.322 19.3922 126.11 19.4234 125.874 19.4442C125.639 19.465 125.413 19.4754 125.198 19.4754C124.221 19.4754 123.468 19.2362 122.941 18.7577C122.421 18.2723 122.161 17.5789 122.161 16.6775V5.16328ZM132.604 19.6418C131.502 19.6418 130.555 19.3957 129.765 18.9034C128.974 18.4041 128.364 17.7141 127.934 16.8335C127.511 15.9459 127.3 14.9266 127.3 13.7755C127.3 12.6106 127.511 11.5843 127.934 10.6968C128.364 9.80224 128.964 9.10189 129.734 8.5957C130.51 8.0895 131.408 7.8364 132.428 7.8364C133.1 7.8364 133.738 7.95429 134.341 8.19005C134.952 8.42581 135.489 8.78292 135.954 9.26138C136.425 9.73984 136.793 10.3431 137.056 11.0712C137.327 11.7924 137.462 12.6453 137.462 13.6299V14.2956H128.433V12.7354H136.463L135.631 13.2971C135.631 12.5412 135.506 11.8756 135.257 11.3C135.007 10.7245 134.643 10.2772 134.165 9.95826C133.686 9.63236 133.107 9.4694 132.428 9.4694C131.748 9.4694 131.162 9.63236 130.67 9.95826C130.177 10.2842 129.796 10.7245 129.526 11.2792C129.262 11.827 129.13 12.4407 129.13 13.1202V14.046C129.13 14.8642 129.273 15.5715 129.557 16.1678C129.841 16.7572 130.243 17.2114 130.763 17.5304C131.283 17.8424 131.901 17.9984 132.615 17.9984C133.093 17.9984 133.523 17.9291 133.905 17.7904C134.293 17.6448 134.619 17.4333 134.882 17.1559C135.153 16.8786 135.354 16.5457 135.486 16.1574L137.275 16.4487C137.108 17.0797 136.81 17.6344 136.38 18.1129C135.95 18.5913 135.413 18.9658 134.768 19.2362C134.123 19.5066 133.402 19.6418 132.604 19.6418ZM139.459 19.3922V8.02363H141.217V9.79184H141.311C141.519 9.20937 141.876 8.74131 142.382 8.38767C142.888 8.03403 143.485 7.85721 144.171 7.85721C144.324 7.85721 144.483 7.86414 144.649 7.87801C144.816 7.88494 144.948 7.89188 145.045 7.89881V9.73984C144.982 9.71903 144.844 9.69476 144.629 9.66703C144.421 9.63929 144.188 9.62542 143.932 9.62542C143.439 9.62542 142.992 9.7329 142.59 9.94786C142.188 10.1628 141.869 10.4714 141.633 10.8736C141.404 11.2758 141.29 11.7577 141.29 12.3194V19.3922H139.459ZM153.429 14.9613V12.7146C153.783 12.2569 154.136 11.8201 154.49 11.404C154.844 10.9811 155.204 10.565 155.572 10.1559C155.939 9.73984 156.314 9.32725 156.695 8.91814L161.355 3.89432H163.893L157.277 10.9672H157.184L153.429 14.9613ZM152.108 19.3922V3.89432H154.043V9.24058L154.022 12.5586L154.043 13.5051V19.3922H152.108ZM161.615 19.3922L155.967 11.4768L157.173 9.96866L163.903 19.3922H161.615ZM165.661 19.3922V8.02363H167.492V19.3922H165.661ZM166.587 6.02658C166.24 6.02658 165.942 5.9087 165.692 5.67294C165.443 5.43025 165.318 5.13901 165.318 4.79923C165.318 4.45946 165.443 4.17169 165.692 3.93593C165.942 3.69323 166.24 3.57189 166.587 3.57189C166.934 3.57189 167.232 3.69323 167.482 3.93593C167.731 4.17169 167.856 4.45946 167.856 4.79923C167.856 5.13901 167.731 5.43025 167.482 5.67294C167.232 5.9087 166.934 6.02658 166.587 6.02658ZM174.836 8.02363V9.59422H168.844V8.02363H174.836ZM170.675 5.16328H172.506V16.5215C172.506 16.9999 172.603 17.3466 172.797 17.5616C172.998 17.7696 173.338 17.8736 173.816 17.8736C173.948 17.8736 174.104 17.8667 174.284 17.8528C174.472 17.832 174.641 17.8147 174.794 17.8008L175.023 19.3506C174.836 19.3922 174.624 19.4234 174.388 19.4442C174.153 19.465 173.927 19.4754 173.712 19.4754C172.735 19.4754 171.982 19.2362 171.455 18.7577C170.935 18.2723 170.675 17.5789 170.675 16.6775V5.16328Z" fill="#9F9FA9"/>
<defs>
<linearGradient id="paint0_linear_17557_2145" x1="3.77557" y1="5.91571" x2="5.23185" y2="21.5589" gradientUnits="userSpaceOnUse">
<stop stop-color="#18E299"/>
<stop offset="1" stop-color="#15803D"/>
</linearGradient>
<linearGradient id="paint1_linear_17557_2145" x1="12.1711" y1="-0.718425" x2="10.1897" y2="22.9832" gradientUnits="userSpaceOnUse">
<stop stop-color="#16A34A"/>
<stop offset="1" stop-color="#4ADE80"/>
</linearGradient>
<linearGradient id="paint2_linear_17557_2145" x1="23.1327" y1="15.353" x2="9.33841" y2="18.5196" gradientUnits="userSpaceOnUse">
<stop stop-color="#4ADE80"/>
<stop offset="1" stop-color="#0D9373"/>
</linearGradient>
</defs>
</svg>
