<?xml version="1.0" standalone="no"?>
<!DOCTYPE svg PUBLIC "-//W3C//DTD SVG 20010904//EN"
 "http://www.w3.org/TR/2001/REC-SVG-20010904/DTD/svg10.dtd">
<svg version="1.0" xmlns="http://www.w3.org/2000/svg"
 width="700.000000pt" height="700.000000pt" viewBox="0 0 700.000000 700.000000"
 preserveAspectRatio="xMidYMid meet">
<metadata>
Created by potrace 1.14, written by Peter Selinger 2001-2017
</metadata>
<g transform="translate(0.000000,700.000000) scale(0.100000,-0.100000)"
fill="#000000" stroke="none">
<path d="M2096 5843 c-1 -2 -97 -3 -213 -3 l-210 -1 -303 -302 c-166 -166
-307 -301 -311 -300 -5 2 -8 -1 -6 -5 3 -13 -296 -308 -308 -304 -5 2 -7 0 -3
-4 9 -9 -103 -120 -117 -116 -5 2 -7 1 -3 -3 10 -10 -142 -156 -155 -148 -6 3
-7 1 -3 -5 3 -6 -33 -50 -84 -100 l-91 -89 36 -44 c20 -24 50 -59 66 -77 16
-18 26 -38 23 -44 -4 -6 -3 -8 4 -4 6 3 21 -8 34 -26 12 -18 30 -40 38 -48 9
-9 42 -49 75 -90 33 -41 67 -82 75 -91 8 -9 22 -25 30 -35 9 -10 51 -61 93
-111 43 -51 75 -97 72 -103 -4 -6 -2 -9 4 -8 14 4 82 -74 76 -89 -2 -7 2 -10
10 -6 8 3 18 -2 21 -11 3 -9 21 -32 40 -52 18 -21 30 -42 27 -47 -3 -6 -1 -7
5 -3 17 10 25 -13 10 -32 -11 -15 -11 -16 3 -5 17 14 13 18 128 -122 23 -27
39 -55 37 -61 -2 -6 1 -11 8 -10 10 1 53 -47 194 -219 46 -55 119 -142 135
-160 45 -49 57 -71 44 -85 -10 -12 -9 -12 4 -2 14 11 20 9 38 -14 11 -14 18
-31 14 -37 -3 -5 -2 -7 4 -4 6 4 25 -13 44 -36 37 -46 55 -68 81 -99 10 -11
15 -25 11 -31 -3 -5 -1 -7 4 -4 14 9 47 -29 37 -44 -4 -7 -3 -10 4 -5 6 3 28
-15 49 -41 21 -27 47 -56 57 -65 10 -10 16 -18 13 -18 -3 0 4 -11 16 -23 64
-69 78 -88 71 -98 -4 -7 -3 -9 3 -6 5 4 23 -10 39 -30 16 -20 34 -41 39 -47
47 -51 74 -89 69 -97 -3 -5 -1 -8 5 -7 15 4 142 -152 134 -165 -3 -7 -2 -9 2
-4 5 4 17 0 27 -10 20 -18 25 -38 6 -27 -7 4 -8 3 -4 -5 4 -6 11 -9 15 -7 8 5
41 -27 51 -49 3 -5 20 -25 38 -43 17 -19 29 -38 26 -43 -3 -5 -1 -8 4 -7 4 2
46 -42 93 -97 46 -55 90 -106 97 -113 7 -8 10 -18 7 -23 -4 -5 1 -9 9 -9 15 0
21 -12 17 -33 -1 -5 3 -6 8 -3 5 4 22 -11 38 -31 15 -21 37 -47 48 -59 11 -11
29 -33 40 -48 11 -15 33 -42 48 -59 16 -18 38 -45 50 -61 12 -15 32 -38 44
-51 12 -13 19 -26 16 -29 -4 -3 -1 -6 5 -6 16 0 158 -179 154 -194 -2 -6 -1
-8 3 -4 11 11 37 -20 29 -33 -4 -7 -3 -9 3 -6 6 4 41 -31 79 -76 38 -45 72
-84 77 -85 4 -2 7 -7 7 -12 0 -4 20 -30 45 -56 25 -27 45 -43 45 -35 0 8 6 11
16 7 8 -3 12 -2 9 4 -8 13 54 80 70 74 7 -3 16 -1 20 5 3 7 0 8 -9 5 -25 -10
-19 5 17 40 17 18 57 62 87 99 30 36 59 66 63 66 5 1 5 -4 1 -11 -4 -7 -3 -8
5 -4 6 4 9 11 6 16 -7 11 34 60 51 60 8 0 12 5 9 11 -4 5 16 33 44 61 28 28
51 55 51 60 0 6 6 8 14 5 8 -3 13 1 12 11 0 9 5 16 12 14 8 -1 11 2 7 8 -3 5
1 13 9 16 9 3 16 12 16 19 0 7 19 29 41 49 23 20 39 36 35 36 -3 0 10 17 30
38 20 20 54 58 77 85 30 34 43 44 50 35 6 -9 7 -8 4 4 -7 20 80 121 96 111 6
-4 7 -1 2 6 -4 7 1 20 11 30 11 10 48 51 84 91 36 41 76 85 90 100 14 14 51
56 83 93 31 38 57 65 57 60 0 -4 9 7 20 25 11 17 24 32 29 32 5 0 13 9 16 20
3 11 11 20 16 20 6 0 7 -6 3 -13 -4 -6 -3 -8 1 -4 5 4 10 14 11 22 3 23 138
174 151 170 7 -2 10 2 6 11 -3 8 1 14 11 14 9 0 15 6 13 13 -1 6 4 11 11 9 8
-1 11 2 8 7 -8 12 18 33 29 23 5 -4 5 -2 1 5 -4 7 11 31 36 57 24 25 59 64 78
86 19 22 41 40 48 40 7 0 10 5 7 11 -8 12 34 61 46 53 5 -3 9 2 9 11 0 8 7 18
15 21 8 4 12 11 8 17 -4 6 0 8 10 4 10 -4 14 -2 11 7 -4 11 52 71 68 71 3 0
10 4 15 9 5 5 2 6 -6 1 -9 -5 -12 -3 -9 6 3 8 11 13 17 11 7 -1 10 2 7 7 -4 5
-1 13 6 18 7 4 30 29 51 56 21 26 43 44 49 41 6 -4 8 -2 4 4 -3 6 6 20 20 31
15 12 23 21 19 21 -4 0 3 10 16 23 13 12 44 46 68 75 29 35 49 51 59 47 12 -4
13 -3 2 10 -13 15 -3 21 25 15 6 -1 7 2 3 5 -11 11 11 47 24 39 6 -4 8 -3 5 3
-8 12 31 56 42 48 5 -2 8 3 7 13 0 9 5 16 11 15 7 -2 12 1 10 5 -1 5 20 34 47
65 37 43 52 54 59 45 6 -10 8 -9 4 3 -6 18 76 116 93 112 5 -2 6 5 3 14 -4 10
-2 14 4 10 5 -4 15 5 22 19 6 14 16 22 21 19 6 -4 9 -2 8 4 -2 5 6 17 17 26
11 9 13 13 5 9 -8 -4 -4 4 10 17 13 13 26 23 29 21 2 -2 9 7 16 20 6 13 17 22
23 21 7 -2 9 4 5 14 -5 13 -2 15 11 10 9 -4 15 -3 12 1 -7 12 24 53 35 47 5
-3 6 2 2 11 -4 12 -3 15 5 10 7 -4 12 -3 12 1 0 17 53 73 63 66 5 -3 7 -2 4 4
-8 13 80 109 96 105 7 -2 9 0 5 3 -12 12 12 47 27 41 8 -3 12 0 9 7 -2 7 29
47 69 90 41 42 72 77 71 77 -2 0 9 12 23 28 14 15 29 26 34 25 4 -2 5 5 2 14
-4 10 -2 14 4 10 5 -4 15 5 22 19 7 16 17 24 26 20 8 -3 12 0 10 7 -7 18 22
50 36 41 7 -4 10 -3 5 4 -4 6 9 27 28 47 19 19 33 35 31 35 -2 0 12 16 31 36
38 41 40 47 19 64 -8 7 -12 16 -9 21 3 5 1 8 -5 7 -15 -4 -162 153 -154 165 3
6 1 7 -5 3 -12 -7 -99 81 -94 96 1 5 -1 7 -6 4 -11 -7 -65 48 -55 57 3 4 1 7
-6 7 -7 0 -47 37 -89 82 -42 45 -101 106 -129 135 -29 29 -53 57 -53 63 0 6
-4 8 -10 5 -5 -3 -10 -2 -10 3 0 5 -29 37 -64 72 -36 35 -62 69 -59 74 3 6 3
8 -1 4 -10 -8 -47 23 -40 34 3 4 0 8 -5 8 -18 0 -52 40 -45 52 4 6 3 8 -3 5
-10 -7 -243 227 -243 244 0 6 -4 8 -9 5 -9 -6 -26 22 -22 37 1 5 -2 6 -7 3
-12 -7 -54 38 -45 48 5 4 4 6 -2 5 -13 -5 -55 32 -55 48 0 7 -4 12 -9 10 -11
-3 -71 59 -71 73 0 6 -4 9 -9 6 -7 -5 -191 -7 -441 -5 -25 0 -133 0 -240 0
-107 0 -202 0 -210 0 -26 1 -469 0 -609 -1 -74 -1 -138 -3 -143 -6 -4 -3 -8
-2 -8 3 0 9 -121 8 -145 -1 -8 -3 -15 -2 -15 2 0 8 -122 7 -145 -1 -8 -4 -15
-3 -15 1 0 8 -123 7 -145 -2 -8 -3 -15 -2 -15 2 0 8 -122 7 -145 -1 -8 -4 -15
-3 -15 1 0 8 -123 7 -145 -2 -8 -3 -15 -2 -15 2 0 8 -122 7 -145 -1 -8 -4 -15
-3 -15 1 0 8 -123 7 -145 -2 -8 -3 -15 -2 -15 2 0 4 -28 6 -62 5 -100 -2 -439
-3 -486 0 -24 1 -45 1 -46 0z"/>
<path d="M6486 4062 c-3 -5 1 -9 9 -9 8 0 12 4 9 9 -3 4 -7 8 -9 8 -2 0 -6 -4
-9 -8z"/>
<path d="M6446 4022 c-3 -5 1 -9 9 -9 8 0 12 4 9 9 -3 4 -7 8 -9 8 -2 0 -6 -4
-9 -8z"/>
<path d="M6290 3840 c0 -5 5 -10 11 -10 5 0 7 5 4 10 -3 6 -8 10 -11 10 -2 0
-4 -4 -4 -10z"/>
<path d="M6126 3658 c3 -5 10 -6 15 -3 13 9 11 12 -6 12 -8 0 -12 -4 -9 -9z"/>
<path d="M6030 3576 c0 -2 8 -10 18 -17 15 -13 16 -12 3 4 -13 16 -21 21 -21
13z"/>
<path d="M5995 3511 c-3 -5 -2 -12 3 -15 5 -3 9 1 9 9 0 17 -3 19 -12 6z"/>
<path d="M5895 3420 c-3 -5 -1 -10 4 -10 6 0 11 5 11 10 0 6 -2 10 -4 10 -3 0
-8 -4 -11 -10z"/>
<path d="M5590 3041 c0 -6 4 -13 10 -16 6 -3 7 1 4 9 -7 18 -14 21 -14 7z"/>
<path d="M5535 2980 c3 -5 8 -10 11 -10 2 0 4 5 4 10 0 6 -5 10 -11 10 -5 0
-7 -4 -4 -10z"/>
<path d="M5506 2962 c-3 -5 1 -9 9 -9 8 0 12 4 9 9 -3 4 -7 8 -9 8 -2 0 -6 -4
-9 -8z"/>
<path d="M5357 2813 c-10 -9 -9 -23 1 -23 5 0 9 7 9 15 0 17 -1 18 -10 8z"/>
<path d="M5356 2758 c3 -5 10 -6 15 -3 13 9 11 12 -6 12 -8 0 -12 -4 -9 -9z"/>
<path d="M5193 2565 c0 -8 4 -12 9 -9 5 3 6 10 3 15 -9 13 -12 11 -12 -6z"/>
<path d="M5120 2480 c-9 -6 -10 -10 -3 -10 6 0 15 5 18 10 8 12 4 12 -15 0z"/>
<path d="M4935 2299 c-3 -4 2 -6 10 -5 21 3 28 13 10 13 -9 0 -18 -4 -20 -8z"/>
<path d="M4529 1877 c6 -8 7 -18 3 -22 -4 -5 -1 -5 6 -1 10 6 10 11 1 22 -6 8
-14 14 -16 14 -3 0 0 -6 6 -13z"/>
<path d="M4255 1580 c-3 -5 -1 -10 4 -10 6 0 11 5 11 10 0 6 -2 10 -4 10 -3 0
-8 -4 -11 -10z"/>
<path d="M4235 1461 c-3 -5 -2 -12 3 -15 5 -3 9 1 9 9 0 17 -3 19 -12 6z"/>
<path d="M3995 1280 c3 -5 8 -10 11 -10 2 0 4 5 4 10 0 6 -5 10 -11 10 -5 0
-7 -4 -4 -10z"/>
<path d="M3830 1036 c0 -2 8 -10 18 -17 15 -13 16 -12 3 4 -13 16 -21 21 -21
13z"/>
<path d="M3695 951 c-3 -5 -2 -12 3 -15 5 -3 9 1 9 9 0 17 -3 19 -12 6z"/>
<path d="M3650 880 c0 -5 5 -10 11 -10 5 0 7 5 4 10 -3 6 -8 10 -11 10 -2 0
-4 -4 -4 -10z"/>
<path d="M3575 781 c-3 -5 -2 -12 3 -15 5 -3 9 1 9 9 0 17 -3 19 -12 6z"/>
</g>
</svg>
